<svg width="180" height="180" viewBox="0 0 180 180" fill="none" xmlns="http://www.w3.org/2000/svg">
  <rect width="180" height="180" rx="37" fill="#D35400"/>
  <g transform="translate(90,90)">
    <!-- Center hexagon -->
    <polygon points="0,-32 27.7,-16 27.7,16 0,32 -27.7,16 -27.7,-16" fill="none" stroke="white" stroke-width="5"/>
    <!-- Top-left hexagon -->
    <polygon points="-42,-56 -14.3,-72 13.4,-56 13.4,-24 -14.3,-8 -42,-24" fill="none" stroke="#F39C12" stroke-width="4"/>
    <!-- Top-right hexagon -->
    <polygon points="42,-56 69.7,-72 97.4,-56 97.4,-24 69.7,-8 42,-24" fill="none" stroke="#FDEBD0" stroke-width="3" opacity="0.7"/>
    <!-- Bottom-right hexagon -->
    <polygon points="42,24 69.7,8 97.4,24 97.4,56 69.7,72 42,56" fill="none" stroke="#F39C12" stroke-width="4"/>
    <!-- Left hexagon -->
    <polygon points="-42,24 -69.7,8 -69.7,-24 -42,-40 -14.3,-24 -14.3,8" fill="none" stroke="#FDEBD0" stroke-width="3" opacity="0.7"/>
  </g>
  <!-- L letter -->
  <text x="90" y="105" text-anchor="middle" font-family="Arial,Helvetica,sans-serif" font-weight="bold" font-size="48" fill="white">L</text>
</svg>
